<mxfile host="Electron" modified="2025-05-19T17:49:26.430Z" agent="Mozilla/5.0 (Windows NT 10.0; Win64; x64) AppleWebKit/537.36 (KHTML, like Gecko) draw.io/24.4.0 Chrome/120.0.6099.109 Electron/28.1.0 Safari/537.36" etag="L4xh2NBPJqe8VCrKSqh3" version="24.4.0" type="device">
  <diagram name="Страница — 1" id="gm39CGXu-ZYGcEcHNOXF">
    <mxGraphModel dx="618" dy="370" grid="1" gridSize="10" guides="1" tooltips="1" connect="1" arrows="1" fold="1" page="1" pageScale="1" pageWidth="827" pageHeight="1169" math="0" shadow="0">
      <root>
        <mxCell id="0" />
        <mxCell id="1" parent="0" />
        <mxCell id="g7q2NXaVJ_5jbfyVcMuL-1" value="Начало" style="ellipse;whiteSpace=wrap;html=1;" vertex="1" parent="1">
          <mxGeometry x="354" y="10" width="120" height="50" as="geometry" />
        </mxCell>
        <mxCell id="g7q2NXaVJ_5jbfyVcMuL-2" value="" style="endArrow=classic;html=1;rounded=0;exitX=0.5;exitY=1;exitDx=0;exitDy=0;" edge="1" parent="1" source="g7q2NXaVJ_5jbfyVcMuL-1">
          <mxGeometry width="50" height="50" relative="1" as="geometry">
            <mxPoint x="470" y="120" as="sourcePoint" />
            <mxPoint x="414" y="80" as="targetPoint" />
          </mxGeometry>
        </mxCell>
        <mxCell id="g7q2NXaVJ_5jbfyVcMuL-4" value="AddTransitionRuleAsync(rule)" style="rounded=0;whiteSpace=wrap;html=1;" vertex="1" parent="1">
          <mxGeometry x="309" y="80" width="210" height="30" as="geometry" />
        </mxCell>
        <mxCell id="g7q2NXaVJ_5jbfyVcMuL-5" value="" style="endArrow=classic;html=1;rounded=0;exitX=0.5;exitY=1;exitDx=0;exitDy=0;" edge="1" parent="1" source="g7q2NXaVJ_5jbfyVcMuL-4">
          <mxGeometry width="50" height="50" relative="1" as="geometry">
            <mxPoint x="410" y="180" as="sourcePoint" />
            <mxPoint x="414" y="140" as="targetPoint" />
          </mxGeometry>
        </mxCell>
        <mxCell id="g7q2NXaVJ_5jbfyVcMuL-6" value="найдено ли правило" style="rhombus;whiteSpace=wrap;html=1;" vertex="1" parent="1">
          <mxGeometry x="329" y="140" width="169" height="40" as="geometry" />
        </mxCell>
        <mxCell id="g7q2NXaVJ_5jbfyVcMuL-7" value="" style="endArrow=classic;html=1;rounded=0;exitX=0;exitY=0.5;exitDx=0;exitDy=0;" edge="1" parent="1">
          <mxGeometry width="50" height="50" relative="1" as="geometry">
            <mxPoint x="280" y="160" as="sourcePoint" />
            <mxPoint x="280" y="200" as="targetPoint" />
          </mxGeometry>
        </mxCell>
        <mxCell id="g7q2NXaVJ_5jbfyVcMuL-8" value="" style="endArrow=none;html=1;rounded=0;entryX=0;entryY=0.5;entryDx=0;entryDy=0;" edge="1" parent="1" target="g7q2NXaVJ_5jbfyVcMuL-6">
          <mxGeometry width="50" height="50" relative="1" as="geometry">
            <mxPoint x="280" y="160" as="sourcePoint" />
            <mxPoint x="330" y="120" as="targetPoint" />
          </mxGeometry>
        </mxCell>
        <mxCell id="g7q2NXaVJ_5jbfyVcMuL-9" value="нет" style="text;html=1;align=center;verticalAlign=middle;whiteSpace=wrap;rounded=0;" vertex="1" parent="1">
          <mxGeometry x="289" y="140" width="31" height="10" as="geometry" />
        </mxCell>
        <mxCell id="g7q2NXaVJ_5jbfyVcMuL-10" value="конец" style="ellipse;whiteSpace=wrap;html=1;" vertex="1" parent="1">
          <mxGeometry x="240" y="200" width="80" height="30" as="geometry" />
        </mxCell>
        <mxCell id="g7q2NXaVJ_5jbfyVcMuL-11" value="" style="endArrow=none;html=1;rounded=0;" edge="1" parent="1">
          <mxGeometry width="50" height="50" relative="1" as="geometry">
            <mxPoint x="498" y="159.72" as="sourcePoint" />
            <mxPoint x="640" y="160" as="targetPoint" />
          </mxGeometry>
        </mxCell>
        <mxCell id="g7q2NXaVJ_5jbfyVcMuL-12" value="" style="endArrow=classic;html=1;rounded=0;entryX=0.5;entryY=0;entryDx=0;entryDy=0;" edge="1" parent="1" target="g7q2NXaVJ_5jbfyVcMuL-13">
          <mxGeometry width="50" height="50" relative="1" as="geometry">
            <mxPoint x="640" y="160" as="sourcePoint" />
            <mxPoint x="640" y="180" as="targetPoint" />
          </mxGeometry>
        </mxCell>
        <mxCell id="g7q2NXaVJ_5jbfyVcMuL-13" value="rule==isAllowed" style="rhombus;whiteSpace=wrap;html=1;" vertex="1" parent="1">
          <mxGeometry x="570" y="190" width="140" height="40" as="geometry" />
        </mxCell>
        <mxCell id="g7q2NXaVJ_5jbfyVcMuL-15" value="" style="endArrow=none;html=1;rounded=0;entryX=0;entryY=0.5;entryDx=0;entryDy=0;" edge="1" parent="1" target="g7q2NXaVJ_5jbfyVcMuL-13">
          <mxGeometry width="50" height="50" relative="1" as="geometry">
            <mxPoint x="520" y="210" as="sourcePoint" />
            <mxPoint x="550" y="190" as="targetPoint" />
          </mxGeometry>
        </mxCell>
        <mxCell id="g7q2NXaVJ_5jbfyVcMuL-17" value="нет" style="text;html=1;align=center;verticalAlign=middle;whiteSpace=wrap;rounded=0;" vertex="1" parent="1">
          <mxGeometry x="530" y="170" width="30" height="20" as="geometry" />
        </mxCell>
        <mxCell id="g7q2NXaVJ_5jbfyVcMuL-18" value="конец" style="ellipse;whiteSpace=wrap;html=1;" vertex="1" parent="1">
          <mxGeometry x="474" y="250" width="90" height="30" as="geometry" />
        </mxCell>
        <mxCell id="g7q2NXaVJ_5jbfyVcMuL-19" value="" style="endArrow=none;html=1;rounded=0;exitX=1;exitY=0.5;exitDx=0;exitDy=0;strokeColor=#0D0D0D;" edge="1" parent="1" source="g7q2NXaVJ_5jbfyVcMuL-13">
          <mxGeometry width="50" height="50" relative="1" as="geometry">
            <mxPoint x="700" y="170" as="sourcePoint" />
            <mxPoint x="760" y="210" as="targetPoint" />
          </mxGeometry>
        </mxCell>
        <mxCell id="g7q2NXaVJ_5jbfyVcMuL-20" value="&lt;span style=&quot;color: rgb(0, 0, 0); font-family: Helvetica; font-size: 12px; font-style: normal; font-variant-ligatures: normal; font-variant-caps: normal; font-weight: 400; letter-spacing: normal; orphans: 2; text-align: center; text-indent: 0px; text-transform: none; widows: 2; word-spacing: 0px; -webkit-text-stroke-width: 0px; white-space: normal; background-color: rgb(251, 251, 251); text-decoration-thickness: initial; text-decoration-style: initial; text-decoration-color: initial; display: inline !important; float: none;&quot;&gt;да&lt;/span&gt;" style="text;whiteSpace=wrap;html=1;" vertex="1" parent="1">
          <mxGeometry x="720" y="160" width="20" height="20" as="geometry" />
        </mxCell>
        <mxCell id="g7q2NXaVJ_5jbfyVcMuL-22" value="" style="endArrow=classic;html=1;rounded=0;" edge="1" parent="1">
          <mxGeometry width="50" height="50" relative="1" as="geometry">
            <mxPoint x="640" y="240" as="sourcePoint" />
            <mxPoint x="640" y="300" as="targetPoint" />
          </mxGeometry>
        </mxCell>
        <mxCell id="g7q2NXaVJ_5jbfyVcMuL-27" value="" style="endArrow=classic;html=1;rounded=0;entryX=0.519;entryY=-0.001;entryDx=0;entryDy=0;entryPerimeter=0;" edge="1" parent="1" target="g7q2NXaVJ_5jbfyVcMuL-18">
          <mxGeometry width="50" height="50" relative="1" as="geometry">
            <mxPoint x="520" y="210" as="sourcePoint" />
            <mxPoint x="524" y="180" as="targetPoint" />
          </mxGeometry>
        </mxCell>
        <mxCell id="g7q2NXaVJ_5jbfyVcMuL-29" value="" style="endArrow=none;html=1;rounded=0;" edge="1" parent="1">
          <mxGeometry width="50" height="50" relative="1" as="geometry">
            <mxPoint x="760" y="240" as="sourcePoint" />
            <mxPoint x="760" y="210" as="targetPoint" />
          </mxGeometry>
        </mxCell>
        <mxCell id="g7q2NXaVJ_5jbfyVcMuL-30" value="" style="endArrow=none;html=1;rounded=0;" edge="1" parent="1">
          <mxGeometry width="50" height="50" relative="1" as="geometry">
            <mxPoint x="640" y="240" as="sourcePoint" />
            <mxPoint x="760" y="240" as="targetPoint" />
          </mxGeometry>
        </mxCell>
        <mxCell id="g7q2NXaVJ_5jbfyVcMuL-31" value="rule требует attachment" style="rhombus;whiteSpace=wrap;html=1;" vertex="1" parent="1">
          <mxGeometry x="575" y="300" width="130" height="60" as="geometry" />
        </mxCell>
        <mxCell id="g7q2NXaVJ_5jbfyVcMuL-32" value="" style="endArrow=classic;html=1;rounded=0;" edge="1" parent="1">
          <mxGeometry width="50" height="50" relative="1" as="geometry">
            <mxPoint x="520" y="330" as="sourcePoint" />
            <mxPoint x="520" y="360" as="targetPoint" />
          </mxGeometry>
        </mxCell>
        <mxCell id="g7q2NXaVJ_5jbfyVcMuL-33" value="" style="endArrow=none;html=1;rounded=0;entryX=0;entryY=0.5;entryDx=0;entryDy=0;" edge="1" parent="1" target="g7q2NXaVJ_5jbfyVcMuL-31">
          <mxGeometry width="50" height="50" relative="1" as="geometry">
            <mxPoint x="520" y="330" as="sourcePoint" />
            <mxPoint x="570" y="320" as="targetPoint" />
          </mxGeometry>
        </mxCell>
        <mxCell id="g7q2NXaVJ_5jbfyVcMuL-35" value="переход запрещен, требуется файл" style="rounded=1;whiteSpace=wrap;html=1;" vertex="1" parent="1">
          <mxGeometry x="459" y="360" width="121" height="30" as="geometry" />
        </mxCell>
        <mxCell id="g7q2NXaVJ_5jbfyVcMuL-36" value="" style="endArrow=classic;html=1;rounded=0;exitX=0.5;exitY=1;exitDx=0;exitDy=0;" edge="1" parent="1" source="g7q2NXaVJ_5jbfyVcMuL-35">
          <mxGeometry width="50" height="50" relative="1" as="geometry">
            <mxPoint x="520" y="440" as="sourcePoint" />
            <mxPoint x="520" y="410" as="targetPoint" />
          </mxGeometry>
        </mxCell>
        <mxCell id="g7q2NXaVJ_5jbfyVcMuL-37" value="конец" style="ellipse;whiteSpace=wrap;html=1;" vertex="1" parent="1">
          <mxGeometry x="474.5" y="410" width="90" height="30" as="geometry" />
        </mxCell>
        <mxCell id="g7q2NXaVJ_5jbfyVcMuL-38" value="" style="endArrow=none;html=1;rounded=0;exitX=1;exitY=0.5;exitDx=0;exitDy=0;" edge="1" parent="1" source="g7q2NXaVJ_5jbfyVcMuL-31">
          <mxGeometry width="50" height="50" relative="1" as="geometry">
            <mxPoint x="710" y="340" as="sourcePoint" />
            <mxPoint x="760" y="330" as="targetPoint" />
          </mxGeometry>
        </mxCell>
        <mxCell id="g7q2NXaVJ_5jbfyVcMuL-39" value="" style="endArrow=none;html=1;rounded=0;" edge="1" parent="1">
          <mxGeometry width="50" height="50" relative="1" as="geometry">
            <mxPoint x="760" y="370" as="sourcePoint" />
            <mxPoint x="760" y="330" as="targetPoint" />
          </mxGeometry>
        </mxCell>
        <mxCell id="g7q2NXaVJ_5jbfyVcMuL-40" value="" style="endArrow=none;html=1;rounded=0;" edge="1" parent="1">
          <mxGeometry width="50" height="50" relative="1" as="geometry">
            <mxPoint x="640" y="370" as="sourcePoint" />
            <mxPoint x="760" y="370" as="targetPoint" />
          </mxGeometry>
        </mxCell>
        <mxCell id="g7q2NXaVJ_5jbfyVcMuL-41" value="" style="endArrow=classic;html=1;rounded=0;" edge="1" parent="1">
          <mxGeometry width="50" height="50" relative="1" as="geometry">
            <mxPoint x="640" y="370" as="sourcePoint" />
            <mxPoint x="640" y="460" as="targetPoint" />
          </mxGeometry>
        </mxCell>
        <mxCell id="g7q2NXaVJ_5jbfyVcMuL-42" value="rule требует commit-link" style="rhombus;whiteSpace=wrap;html=1;" vertex="1" parent="1">
          <mxGeometry x="557.5" y="460" width="165" height="60" as="geometry" />
        </mxCell>
        <mxCell id="g7q2NXaVJ_5jbfyVcMuL-44" value="" style="endArrow=none;html=1;rounded=0;entryX=0;entryY=0.5;entryDx=0;entryDy=0;" edge="1" parent="1" target="g7q2NXaVJ_5jbfyVcMuL-42">
          <mxGeometry width="50" height="50" relative="1" as="geometry">
            <mxPoint x="520" y="490" as="sourcePoint" />
            <mxPoint x="540" y="480" as="targetPoint" />
          </mxGeometry>
        </mxCell>
        <mxCell id="g7q2NXaVJ_5jbfyVcMuL-45" value="" style="endArrow=classic;html=1;rounded=0;" edge="1" parent="1">
          <mxGeometry width="50" height="50" relative="1" as="geometry">
            <mxPoint x="520" y="490" as="sourcePoint" />
            <mxPoint x="520" y="520" as="targetPoint" />
          </mxGeometry>
        </mxCell>
        <mxCell id="g7q2NXaVJ_5jbfyVcMuL-46" value="rule требует commit-link" style="rounded=1;whiteSpace=wrap;html=1;" vertex="1" parent="1">
          <mxGeometry x="474" y="520" width="95" height="30" as="geometry" />
        </mxCell>
        <mxCell id="g7q2NXaVJ_5jbfyVcMuL-47" value="конец" style="ellipse;whiteSpace=wrap;html=1;" vertex="1" parent="1">
          <mxGeometry x="485.57" y="570" width="67.87" height="43" as="geometry" />
        </mxCell>
        <mxCell id="g7q2NXaVJ_5jbfyVcMuL-48" value="" style="endArrow=classic;html=1;rounded=0;exitX=0.486;exitY=1.011;exitDx=0;exitDy=0;exitPerimeter=0;" edge="1" parent="1" source="g7q2NXaVJ_5jbfyVcMuL-46">
          <mxGeometry width="50" height="50" relative="1" as="geometry">
            <mxPoint x="470" y="580" as="sourcePoint" />
            <mxPoint x="520" y="570" as="targetPoint" />
          </mxGeometry>
        </mxCell>
        <mxCell id="g7q2NXaVJ_5jbfyVcMuL-49" value="" style="endArrow=none;html=1;rounded=0;exitX=1;exitY=0.5;exitDx=0;exitDy=0;" edge="1" parent="1" source="g7q2NXaVJ_5jbfyVcMuL-42">
          <mxGeometry width="50" height="50" relative="1" as="geometry">
            <mxPoint x="730" y="510" as="sourcePoint" />
            <mxPoint x="760" y="490" as="targetPoint" />
          </mxGeometry>
        </mxCell>
        <mxCell id="g7q2NXaVJ_5jbfyVcMuL-50" value="" style="endArrow=none;html=1;rounded=0;" edge="1" parent="1">
          <mxGeometry width="50" height="50" relative="1" as="geometry">
            <mxPoint x="760" y="530" as="sourcePoint" />
            <mxPoint x="760" y="490" as="targetPoint" />
          </mxGeometry>
        </mxCell>
        <mxCell id="g7q2NXaVJ_5jbfyVcMuL-51" value="" style="endArrow=none;html=1;rounded=0;" edge="1" parent="1">
          <mxGeometry width="50" height="50" relative="1" as="geometry">
            <mxPoint x="650" y="530" as="sourcePoint" />
            <mxPoint x="760" y="530" as="targetPoint" />
          </mxGeometry>
        </mxCell>
        <mxCell id="g7q2NXaVJ_5jbfyVcMuL-52" value="" style="endArrow=classic;html=1;rounded=0;" edge="1" parent="1">
          <mxGeometry width="50" height="50" relative="1" as="geometry">
            <mxPoint x="648" y="530" as="sourcePoint" />
            <mxPoint x="648.17" y="610" as="targetPoint" />
          </mxGeometry>
        </mxCell>
        <mxCell id="g7q2NXaVJ_5jbfyVcMuL-53" value="&lt;font style=&quot;font-size: 10px;&quot;&gt;rule требует commit-link&lt;/font&gt;&lt;div&gt;&lt;font style=&quot;font-size: 10px;&quot;&gt;и attachment&lt;/font&gt;&lt;/div&gt;" style="rhombus;whiteSpace=wrap;html=1;" vertex="1" parent="1">
          <mxGeometry x="565.87" y="610" width="165" height="60" as="geometry" />
        </mxCell>
        <mxCell id="g7q2NXaVJ_5jbfyVcMuL-54" value="" style="endArrow=none;html=1;rounded=0;entryX=0;entryY=0.5;entryDx=0;entryDy=0;" edge="1" parent="1" target="g7q2NXaVJ_5jbfyVcMuL-53">
          <mxGeometry width="50" height="50" relative="1" as="geometry">
            <mxPoint x="531.57" y="640" as="sourcePoint" />
            <mxPoint x="551.57" y="630" as="targetPoint" />
          </mxGeometry>
        </mxCell>
        <mxCell id="g7q2NXaVJ_5jbfyVcMuL-55" value="" style="endArrow=classic;html=1;rounded=0;" edge="1" parent="1">
          <mxGeometry width="50" height="50" relative="1" as="geometry">
            <mxPoint x="531.57" y="640" as="sourcePoint" />
            <mxPoint x="531.57" y="670" as="targetPoint" />
          </mxGeometry>
        </mxCell>
        <mxCell id="g7q2NXaVJ_5jbfyVcMuL-56" value="rule требует commit-link и&amp;nbsp;&lt;font style=&quot;font-size: 12px;&quot;&gt;attachment&lt;/font&gt;" style="rounded=1;whiteSpace=wrap;html=1;" vertex="1" parent="1">
          <mxGeometry x="450.57" y="670" width="161" height="30" as="geometry" />
        </mxCell>
        <mxCell id="g7q2NXaVJ_5jbfyVcMuL-57" value="конец" style="ellipse;whiteSpace=wrap;html=1;" vertex="1" parent="1">
          <mxGeometry x="498" y="730" width="67.87" height="43" as="geometry" />
        </mxCell>
        <mxCell id="g7q2NXaVJ_5jbfyVcMuL-59" value="" style="endArrow=none;html=1;rounded=0;exitX=1;exitY=0.5;exitDx=0;exitDy=0;" edge="1" parent="1" source="g7q2NXaVJ_5jbfyVcMuL-53">
          <mxGeometry width="50" height="50" relative="1" as="geometry">
            <mxPoint x="741.57" y="660" as="sourcePoint" />
            <mxPoint x="771.57" y="640" as="targetPoint" />
          </mxGeometry>
        </mxCell>
        <mxCell id="g7q2NXaVJ_5jbfyVcMuL-60" value="" style="endArrow=none;html=1;rounded=0;" edge="1" parent="1">
          <mxGeometry width="50" height="50" relative="1" as="geometry">
            <mxPoint x="771.57" y="680" as="sourcePoint" />
            <mxPoint x="771.57" y="640" as="targetPoint" />
          </mxGeometry>
        </mxCell>
        <mxCell id="g7q2NXaVJ_5jbfyVcMuL-61" value="" style="endArrow=none;html=1;rounded=0;" edge="1" parent="1">
          <mxGeometry width="50" height="50" relative="1" as="geometry">
            <mxPoint x="651.57" y="680" as="sourcePoint" />
            <mxPoint x="771.57" y="680" as="targetPoint" />
          </mxGeometry>
        </mxCell>
        <mxCell id="g7q2NXaVJ_5jbfyVcMuL-62" value="" style="endArrow=classic;html=1;rounded=0;" edge="1" parent="1">
          <mxGeometry width="50" height="50" relative="1" as="geometry">
            <mxPoint x="651.57" y="680" as="sourcePoint" />
            <mxPoint x="650" y="770" as="targetPoint" />
          </mxGeometry>
        </mxCell>
        <mxCell id="g7q2NXaVJ_5jbfyVcMuL-63" value="" style="endArrow=classic;html=1;rounded=0;exitX=0.5;exitY=1;exitDx=0;exitDy=0;entryX=0.5;entryY=0;entryDx=0;entryDy=0;" edge="1" parent="1" source="g7q2NXaVJ_5jbfyVcMuL-56" target="g7q2NXaVJ_5jbfyVcMuL-57">
          <mxGeometry width="50" height="50" relative="1" as="geometry">
            <mxPoint x="540" y="750" as="sourcePoint" />
            <mxPoint x="590" y="700" as="targetPoint" />
          </mxGeometry>
        </mxCell>
        <mxCell id="g7q2NXaVJ_5jbfyVcMuL-64" value="перемещение тикета" style="rounded=1;whiteSpace=wrap;html=1;" vertex="1" parent="1">
          <mxGeometry x="590" y="770" width="140" height="40" as="geometry" />
        </mxCell>
        <mxCell id="g7q2NXaVJ_5jbfyVcMuL-65" value="" style="endArrow=classic;html=1;rounded=0;exitX=0.403;exitY=1.056;exitDx=0;exitDy=0;exitPerimeter=0;" edge="1" parent="1">
          <mxGeometry width="50" height="50" relative="1" as="geometry">
            <mxPoint x="648.5799999999999" y="809.9999999999999" as="sourcePoint" />
            <mxPoint x="648.16" y="847.76" as="targetPoint" />
          </mxGeometry>
        </mxCell>
        <mxCell id="g7q2NXaVJ_5jbfyVcMuL-67" value="конец" style="ellipse;whiteSpace=wrap;html=1;" vertex="1" parent="1">
          <mxGeometry x="614.44" y="850" width="67.87" height="43" as="geometry" />
        </mxCell>
      </root>
    </mxGraphModel>
  </diagram>
</mxfile>
